<svg width="37" height="24" xmlns="http://www.w3.org/2000/svg">
  <defs/>
  <path d="M24.863.2c6.407 0 11.602 5.195 11.602 11.602 0 6.408-5.195 11.603-11.603 11.603a11.55 11.55 0 01-6.63-2.08 11.552 11.552 0 01-6.63 2.08C5.195 23.405 0 18.21 0 11.802 0 5.395 5.195.2 11.602.2c2.466 0 4.751.769 6.63 2.08A11.552 11.552 0 0124.862.2zm-13.26 3.315a8.287 8.287 0 104.145 15.465 11.545 11.545 0 01-2.488-7.178c0-2.71.93-5.203 2.487-7.178a8.249 8.249 0 00-4.145-1.109zm13.26 0a8.25 8.25 0 00-4.146 1.11 11.545 11.545 0 012.488 7.177c0 2.71-.93 5.204-2.487 7.18a8.287 8.287 0 104.144-15.466zm-6.63 3.314a8.254 8.254 0 00-1.658 4.973 8.25 8.25 0 001.658 4.974 8.251 8.251 0 001.657-4.974 8.25 8.25 0 00-1.658-4.973z" fill="#FC1591" fill-rule="evenodd"/>
</svg>
