<svg width="22" height="22" xmlns="http://www.w3.org/2000/svg">
  <g fill="none" fill-rule="evenodd">
    <path d="M0 .109h21.782v21.782H0z"/>
    <path d="M6.352 6.965v2.44a4.608 4.608 0 00-2.933 4.291A4.606 4.606 0 008.023 18.3a4.606 4.606 0 004.604-4.604 4.608 4.608 0 00-2.933-4.29v-2.44a6.94 6.94 0 015.263 6.73 6.937 6.937 0 01-6.934 6.934 6.937 6.937 0 01-6.934-6.934 6.94 6.94 0 015.263-6.73z" fill="#888888"/>
    <path d="M12.088 15.035v-2.44a4.608 4.608 0 01-2.933-4.291A4.606 4.606 0 0113.76 3.7a4.606 4.606 0 014.604 4.604 4.608 4.608 0 01-2.933 4.29v2.44a6.94 6.94 0 005.263-6.73A6.937 6.937 0 0013.76 1.37a6.937 6.937 0 00-6.934 6.934 6.94 6.94 0 005.263 6.73z" fill="#888888"/>
  </g>
</svg>
