<svg width="21" height="16" xmlns="http://www.w3.org/2000/svg">
  <defs/>
  <path d="M18.027 3.993a8.04 8.04 0 002.018-2.09v-.001a8.411 8.411 0 01-2.32.636A4.006 4.006 0 0019.497.312a8.058 8.058 0 01-2.554.975 4.026 4.026 0 00-6.967 2.754c0 .32.027.626.093.918A11.402 11.402 0 011.768.746a4.062 4.062 0 00-.552 2.036c0 1.395.718 2.63 1.79 3.347a3.981 3.981 0 01-1.82-.496v.044a4.046 4.046 0 003.227 3.958c-.329.09-.686.132-1.056.132-.258 0-.519-.014-.762-.068.52 1.594 2.002 2.767 3.762 2.806a8.096 8.096 0 01-4.994 1.717c-.33 0-.646-.015-.963-.055a11.342 11.342 0 006.178 1.807c7.108 0 11.74-5.93 11.449-11.98z" fill="#000" fill-rule="nonzero"/>
</svg>
