<svg width="142" height="98" xmlns="http://www.w3.org/2000/svg">
  <g transform="translate(9 9)" fill="#F66537" fill-rule="evenodd">
    <path d="M9.402 53.356c1.235 0 2.384-.164 3.449-.49 1.065-.327 1.978-.78 2.74-1.362a6.5 6.5 0 001.798-2.069 5.299 5.299 0 00.653-2.577c0-1.5-.514-2.741-1.543-3.721-1.028-.98-2.486-1.604-4.374-1.87l-3.812-.58c-.823-.122-1.403-.297-1.742-.527-.34-.23-.509-.539-.509-.926 0-.411.23-.744.69-.998.46-.254 1.065-.381 1.815-.381.944 0 1.888.139 2.832.417.944.278 1.936.72 2.977 1.325l2.795-3.775a14.85 14.85 0 00-3.866-1.725 15.01 15.01 0 00-4.157-.599c-2.565 0-4.586.557-6.062 1.67C1.609 36.282.87 37.806.87 39.742c0 1.573.508 2.85 1.525 3.83 1.016.98 2.469 1.616 4.356 1.906l3.812.581c.678.097 1.174.26 1.488.49.315.23.472.526.472.89 0 .46-.284.828-.853 1.107-.569.278-1.337.417-2.305.417a9.363 9.363 0 01-2.94-.49c-.993-.327-2.094-.853-3.304-1.58L.327 50.852c1.113.823 2.45 1.446 4.011 1.87 1.561.423 3.25.635 5.064.635zm21.382 0c1.598 0 3.032-.23 4.302-.69 1.27-.46 2.511-1.198 3.721-2.214l-3.884-3.45c-.46.46-1.017.818-1.67 1.072-.654.254-1.38.38-2.178.38-1.114 0-2.082-.283-2.904-.852a5.077 5.077 0 01-1.816-2.196h13.686v-1.453c0-1.5-.242-2.898-.726-4.192-.484-1.295-1.155-2.402-2.014-3.322a9.439 9.439 0 00-3.068-2.178c-1.186-.533-2.48-.799-3.884-.799s-2.717.254-3.94.762a9.712 9.712 0 00-3.176 2.106 9.954 9.954 0 00-2.123 3.176 9.858 9.858 0 00-.78 3.903c0 1.38.272 2.68.816 3.902a10 10 0 002.215 3.177c.931.895 2.038 1.597 3.321 2.105 1.283.509 2.65.763 4.102.763zm3.485-12.053h-8.022c.29-.968.786-1.718 1.488-2.25.702-.533 1.537-.799 2.505-.799.944 0 1.773.278 2.486.835.714.557 1.229 1.295 1.543 2.214zm15.138 11.69V26.31l-5.88 1.27v25.412h5.88zm13.287 0V38.69h5.046v-4.901h-5.046v-1.053c0-.726.23-1.265.69-1.615.46-.351 1.137-.527 2.033-.527.387 0 .756.018 1.107.055.35.036.756.102 1.216.2v-4.865a12.488 12.488 0 00-1.47-.254 13.648 13.648 0 00-1.652-.11c-2.517 0-4.447.606-5.79 1.816s-2.015 2.94-2.015 5.191v1.162h-4.211v4.9h4.211v14.304h5.881zM91.732 51.896V26.484h-6.244v25.412h6.244zm15.247 0c1.864 0 3.618-.327 5.264-.98 1.646-.654 3.068-1.55 4.266-2.687a12.754 12.754 0 002.85-4.03 11.823 11.823 0 001.052-4.937c0-1.79-.35-3.467-1.053-5.028a12.697 12.697 0 00-2.85-4.047c-1.197-1.138-2.62-2.04-4.265-2.705-1.646-.665-3.4-.998-5.264-.998H96.67v25.412h10.31zm-.145-5.518h-3.92V32.002h3.92c.992 0 1.924.187 2.795.563.872.375 1.628.889 2.27 1.542a7.113 7.113 0 011.506 2.306c.363.883.544 1.833.544 2.85 0 .992-.181 1.923-.544 2.795a6.953 6.953 0 01-1.507 2.269 6.953 6.953 0 01-2.269 1.506 7.194 7.194 0 01-2.795.545z" fill-rule="nonzero"/>
    <circle cx="74.825" cy="46.08" r="6.583"/>
    <path d="M100.937 29.842h13.166v18.432h-13.166z"/>
  </g>
</svg>
