<svg width="44" height="48" xmlns="http://www.w3.org/2000/svg">
  <defs>
    <filter x="-46.2%" y="-40%" width="192.3%" height="180%" filterUnits="objectBoundingBox" id="a">
      <feOffset dy="2" in="SourceAlpha" result="shadowOffsetOuter1"/>
      <feGaussianBlur stdDeviation="2" in="shadowOffsetOuter1" result="shadowBlurOuter1"/>
      <feColorMatrix values="0 0 0 0 0 0 0 0 0 0 0 0 0 0 0 0 0 0 0.5 0" in="shadowBlurOuter1" result="shadowMatrixOuter1"/>
      <feMerge>
        <feMergeNode in="shadowMatrixOuter1"/>
        <feMergeNode in="SourceGraphic"/>
      </feMerge>
    </filter>
  </defs>
  <g transform="translate(9 9)" filter="url(#a)" fill="#FFF" fill-rule="nonzero">
    <path d="M25.785 24.835c-.912-4.936-5.203-8.544-10.215-8.544h-5.203c-5.126 0-9.456 3.722-10.291 8.772-.418 2.545 1.557 4.823 4.101 4.823h17.545c2.582 0 4.556-2.354 4.1-4.899l-.037-.152zM7.633 12.228c2.962 2.962 7.747 3.038 10.785.152l.076-.076c2.62-2.507 2.886-6.57.57-9.38-3.153-3.797-9-3.721-12.039.152a6.902 6.902 0 00.57 9.114l.038.038z"/>
  </g>
</svg>
