<svg width="33" height="33" xmlns="http://www.w3.org/2000/svg">
  <defs/>
  <path d="M16.023 32.245a16.355 16.355 0 01-.295-.001C7.015 32.085 0 24.974 0 16.223 0 7.373 7.174.2 16.023.2l-.295.001H16.023c8.848 0 16.022 7.173 16.022 16.022 0 8.849-7.174 16.022-16.023 16.022zm12.6-14.364h-5.71c-.263 3.667-1.405 7.194-3.413 10.566 4.813-1.365 8.462-5.496 9.123-10.566zm-19.724 0H3.422c.648 4.972 4.17 9.04 8.844 10.485-1.98-3.348-3.105-6.848-3.367-10.486zm10.69 0h-7.365c.293 3.476 1.515 6.819 3.682 10.047 2.168-3.228 3.39-6.57 3.683-10.047zM12.265 4.08l-.091.028c-4.629 1.47-8.108 5.517-8.752 10.457H8.9c.262-3.638 1.388-7.138 3.366-10.485zm3.642.437l-.007.01c-2.164 3.225-3.383 6.564-3.676 10.038h7.365c-.293-3.477-1.515-6.82-3.682-10.048zm3.593-.52l.228.391c1.867 3.254 2.932 6.65 3.186 10.177h5.709c-.66-5.07-4.31-9.202-9.123-10.568z" fill="#FC1591" fill-rule="evenodd"/>
</svg>
