<svg width="27" height="31" xmlns="http://www.w3.org/2000/svg">
  <defs/>
  <path d="M24.124.5a2.763 2.763 0 012.761 2.67c.592 17.78-3.904 27.165-13.853 27.165-9.8 0-13.96-9.068-12.86-26.2l.075-1.08A2.763 2.763 0 013.002.5zm-.536 3.315H3.516l-.07 1.089c-.876 14.892 2.356 21.953 9.341 22.113l.245.003c7.193 0 10.829-7.081 10.58-22.135l-.024-1.07zm-3.078 6.01c.606.607.644 1.568.113 2.219l-.113.126-7.735 7.735a1.65 1.65 0 01-1.014.477l-.159.008c-.37 0-.742-.124-1.046-.372l-.126-.113-4.42-4.42a1.658 1.658 0 012.219-2.458l.126.113 3.247 3.249 6.563-6.564a1.658 1.658 0 012.345 0z" fill="#FC1591" fill-rule="evenodd"/>
</svg>
