<svg width="24" height="24" xmlns="http://www.w3.org/2000/svg">
  <defs/>
  <path d="M14.571 9a.857.857 0 01-1.714 0A3.862 3.862 0 009 5.143a.857.857 0 010-1.714c3.072 0 5.571 2.499 5.571 5.571zm9.178 14.749a.855.855 0 01-1.212 0l-7.715-7.714c-.034-.034-.05-.078-.076-.115A8.957 8.957 0 019 18c-4.963 0-9-4.037-9-9s4.037-9 9-9 9 4.037 9 9a8.958 8.958 0 01-2.08 5.746c.037.027.08.043.114.077l7.715 7.714a.856.856 0 010 1.212zM16.286 9c0-4.017-3.269-7.286-7.286-7.286-4.017 0-7.286 3.269-7.286 7.286 0 4.017 3.269 7.286 7.286 7.286 4.017 0 7.286-3.269 7.286-7.286z" fill="#000" fill-rule="nonzero" opacity=".402"/>
</svg>
