<svg width="18" height="18" xmlns="http://www.w3.org/2000/svg">
  <defs/>
  <g fill="#000" fill-rule="nonzero">
    <path d="M2.092 15.544h10.457l-.5-1.617 1.195 1.025 1.095.981 1.994 1.667V1.815C16.283.834 15.44 0 14.391 0L2.096.002C1.049.002.2.837.2 1.82v11.909c0 1.035.848 1.816 1.892 1.816zm2.14-10.446c1.343-.978 2.59-.931 2.59-.931l.1.099c-1.645.392-2.39 1.127-2.39 1.127s.199-.098.547-.246c2.215-.872 4.635-.809 6.874.294 0 0-.747-.687-2.29-1.127l.136-.134c.213 0 1.342.04 2.55.924 0 0 1.353 2.31 1.353 5.148-.045-.054-.839 1.222-2.883 1.266 0 0-.346-.392-.592-.734 1.195-.343 1.643-1.03 1.643-1.03-.393.248-.75.395-1.041.541-.447.197-.894.294-1.34.393-2.116.343-3.303-.231-4.425-.687l-.383-.195s.446.687 1.594 1.03c-.301.344-.6.735-.6.735-2.043-.049-2.788-1.325-2.788-1.325 0-2.842 1.344-5.148 1.344-5.148z"/>
    <path d="M9.96 9.365c.52 0 .945-.44.945-.982 0-.54-.422-.98-.946-.98v.003c-.519 0-.944.438-.946.981 0 .538.425.978.946.978zM6.573 9.365c.521 0 .946-.44.946-.982 0-.54-.422-.98-.943-.98l-.003.003c-.522 0-.946.438-.946.981 0 .538.424.978.946.978z"/>
  </g>
</svg>
