<svg width="15" height="15" xmlns="http://www.w3.org/2000/svg">
  <defs/>
  <path d="M14.563 2.063c.222-.225.334-.496.333-.813 0-.317-.11-.588-.334-.813a1.107 1.107 0 00-.812-.333c-.317 0-.588.11-.813.334L7.5 5.875 2.062.437A1.107 1.107 0 001.25.104c-.317 0-.588.11-.813.334a1.107 1.107 0 00-.333.812c0 .317.11.588.334.813L5.875 7.5.437 12.938a1.107 1.107 0 00-.333.812c0 .317.11.588.334.813.224.222.495.334.812.333.317 0 .588-.11.813-.334L7.5 9.125l5.438 5.438c.224.222.495.334.812.333.317 0 .588-.11.813-.334.222-.224.334-.495.333-.812 0-.317-.11-.588-.334-.813L9.125 7.5l5.438-5.438z" fill="#000" fill-rule="nonzero" opacity=".299"/>
</svg>
